<svg width="100" height="100" viewBox="0 0 100 100" fill="none" xmlns="http://www.w3.org/2000/svg">
<g clip-path="url(#clip0_0_842)">
<rect opacity="0.0229128" x="0.5" y="0.5" width="99" height="99" stroke="#2B2B2B"/>
<g clip-path="url(#clip1_0_842)">
<path fill-rule="evenodd" clip-rule="evenodd" d="M88.6201 42.038C94.557 42.038 99.3869 46.9061 99.3869 52.8938C99.3869 58.8774 94.557 63.7455 88.6201 63.7455H41.8071C34.357 63.7455 28.2944 57.6327 28.2944 50.1194C28.2944 42.6061 34.357 36.4933 41.8071 36.4933C43.1944 36.4933 44.5735 36.7086 45.9011 37.1331L46.7689 37.4099L47.074 36.5466C49.9353 28.4365 57.5811 22.9881 66.0989 22.9881C76.5133 22.9881 85.1569 30.8542 86.2061 41.2875L86.303 42.2534L87.2595 42.1344C87.7873 42.0688 88.2202 42.038 88.6201 42.038Z" fill="#BAC6D1"/>
<path fill-rule="evenodd" clip-rule="evenodd" d="M11.8943 53.3306C5.33686 53.3306 -0.000183105 58.6908 -0.000183105 65.2814C-0.000183105 71.8678 5.33686 77.2301 11.8943 77.2301H63.6094C71.8427 77.2301 78.5383 70.5001 78.5383 62.2281C78.5383 53.956 71.8427 47.226 63.6094 47.226C62.0777 47.226 60.5543 47.4639 59.0866 47.9294L58.1301 48.2349L57.792 47.2834C54.6319 38.3552 46.1841 32.3572 36.7737 32.3572C25.2688 32.3572 15.7203 41.0189 14.5618 52.5042L14.4546 53.5684L13.3991 53.4372C12.8137 53.3634 12.3354 53.3306 11.8943 53.3306Z" fill="#D6E3F2"/>
</g>
</g>
<defs>
<clipPath id="clip0_0_842">
<rect width="100" height="100" fill="white"/>
</clipPath>
<clipPath id="clip1_0_842">
<rect width="100" height="56" fill="white" transform="translate(0 22)"/>
</clipPath>
</defs>
</svg>
